<?xml version="1.0" standalone="no"?><!DOCTYPE svg PUBLIC "-//W3C//DTD SVG 1.1//EN" "http://www.w3.org/Graphics/SVG/1.1/DTD/svg11.dtd"><svg t="1688241279423" class="icon" viewBox="0 0 1024 1024" version="1.1" xmlns="http://www.w3.org/2000/svg" p-id="3139" xmlns:xlink="http://www.w3.org/1999/xlink" width="200" height="200"><path d="M760.6784 507.1872c-39.1168 0-75.6224 11.264-106.5472 30.72-17.7664-12.6976-36.4032-23.8592-55.9616-33.2288 49.1008-46.2336 76.0832-111.8208 72.5504-181.76-5.888-117.8112-99.0208-212.8384-216.576-221.0816-65.5872-4.5568-128.1024 17.5104-176.0256 62.208-47.2576 44.032-74.3424 106.3424-74.3424 170.9568 0 65.024 26.9824 126.0544 72.96 169.6256-95.232 45.2608-167.0656 128.8192-197.12 232.0896-9.3184 32.1024-3.1744 65.8432 16.9472 92.6208 20.1216 26.8288 50.944 42.24 84.48 42.24h463.5136c32.8192 23.3472 72.8576 37.1712 116.1216 37.1712 110.6944 0 200.7552-90.0608 200.7552-200.7552s-90.0608-200.8064-200.7552-200.8064zM145.7152 792.4224a43.4688 43.4688 0 0 1-7.0656-38.6048c29.2352-100.5568 109.7728-181.504 210.2272-211.3024 11.8784-3.5328 20.48-13.8752 21.8112-26.2144s-4.9152-24.2688-15.7696-30.208A172.14976 172.14976 0 0 1 265.216 334.9504c0-48.2816 19.456-93.0304 54.8352-126.0032 35.328-32.9216 81.408-49.2032 129.8944-45.7728 86.5792 6.0416 155.1872 76.0832 159.5392 162.8672 3.328 66.7136-30.9248 128.0512-89.4464 160.1024-10.9056 5.9392-17.1008 17.8688-15.7696 30.208s9.9328 22.6816 21.8112 26.2144a308.5568 308.5568 0 0 1 80.4352 37.0688c-29.0304 34.816-46.4896 79.5648-46.4896 128.3072 0 37.2736 10.24 72.192 28.0576 102.144h-407.04c-14.0288 0-26.9312-6.4512-35.328-17.664z m614.9632 54.8352c-76.8 0-139.3152-62.5152-139.3152-139.3152s62.5152-139.3152 139.3152-139.3152 139.3152 62.5152 139.3152 139.3152-62.464 139.3152-139.3152 139.3152z" fill="#666666" p-id="3140" data-spm-anchor-id="a313x.7781069.0.i4" class="selected"></path><path d="M770.4576 822.1184c-9.728 0-18.8416-5.0176-23.9616-13.3632l-80.9472-131.328a28.18048 28.18048 0 0 1 9.216-38.7584 28.19072 28.19072 0 0 1 38.7584 9.216l53.9136 87.5008 40.8576-84.9408a28.12928 28.12928 0 0 1 37.5808-13.1584 28.12928 28.12928 0 0 1 13.1584 37.5808l-63.1808 131.328a28.2112 28.2112 0 0 1-23.9104 15.9232h-1.4848z" fill="#50DEFF" p-id="3141"></path></svg>